<svg width="1584" height="396" viewBox="0 0 1584 396" fill="none" xmlns="http://www.w3.org/2000/svg">
<rect width="1584" height="396" fill="#F5F5F5"/>
<g id="Awesome banner" clip-path="url(#clip0_0_1)">
<rect width="1584" height="396" fill="url(#paint0_linear_0_1)"/>
<ellipse id="Ellipse 2" cx="323" cy="64" rx="285" ry="288" fill="url(#paint1_linear_0_1)" fill-opacity="0.1"/>
<g id="copyright">
<path d="M75.95 334.52L72.30 334.52L72.30 311.16L77.20 311.16L83.70 330.04Q83.60 329.02 83.50 327.62Q83.41 326.23 83.33 324.79Q83.25 323.35 83.25 322.23L83.25 311.16L86.90 311.16L86.90 334.52L82 334.52L75.57 315.64Q75.63 316.57 75.73 317.88Q75.82 319.19 75.89 320.57Q75.95 321.94 75.95 323.10L75.95 334.52M98.80 334.84Q96.46 334.84 94.67 333.96Q92.88 333.08 91.89 331.53Q90.90 329.98 90.90 327.93Q90.90 325.78 92.13 324.18Q93.36 322.58 95.34 322.17L95.34 322.10Q93.65 321.75 92.61 320.38Q91.57 319 91.57 317.11Q91.57 315.26 92.48 313.85Q93.39 312.44 95.02 311.64Q96.66 310.84 98.80 310.84Q100.94 310.84 102.59 311.64Q104.24 312.44 105.15 313.85Q106.06 315.26 106.06 317.11Q106.06 319 105.01 320.38Q103.95 321.75 102.26 322.10L102.26 322.17Q104.24 322.58 105.47 324.18Q106.70 325.78 106.70 327.93Q106.70 329.98 105.71 331.53Q104.72 333.08 102.93 333.96Q101.14 334.84 98.80 334.84M98.80 320.73Q100.30 320.73 101.23 319.82Q102.16 318.90 102.16 317.46Q102.16 315.99 101.23 315.08Q100.30 314.17 98.80 314.17Q97.30 314.17 96.37 315.08Q95.44 315.99 95.44 317.46Q95.44 318.90 96.37 319.82Q97.30 320.73 98.80 320.73M98.80 331.45Q100.56 331.45 101.68 330.42Q102.80 329.40 102.80 327.74Q102.80 326.04 101.68 325Q100.56 323.96 98.80 323.96Q97.04 323.96 95.92 325Q94.80 326.04 94.80 327.74Q94.80 329.40 95.92 330.42Q97.04 331.45 98.80 331.45M114.35 334.52L110.70 334.52L110.70 311.16L115.60 311.16L122.10 330.04Q122 329.02 121.90 327.62Q121.81 326.23 121.73 324.79Q121.65 323.35 121.65 322.23L121.65 311.16L125.30 311.16L125.30 334.52L120.40 334.52L113.97 315.64Q114.03 316.57 114.13 317.88Q114.22 319.19 114.29 320.57Q114.35 321.94 114.35 323.10" fill="white" fill-opacity="0.9"/>
<path d="M161.48 325.24L151.24 325.24L151.24 322.68L161.48 322.68" fill="white" fill-opacity="0.9"/>
<path d="M195.02 334.84Q191.82 334.84 189.96 333.05Q188.11 331.26 188.11 328.12L188.11 317.56Q188.11 314.42 189.96 312.63Q191.82 310.84 195.02 310.84Q198.15 310.84 200.01 312.65Q201.87 314.46 201.87 317.56L198.99 317.56Q198.99 315.58 197.95 314.50Q196.91 313.43 195.02 313.43Q193.13 313.43 192.06 314.50Q190.99 315.58 190.99 317.56L190.99 328.12Q190.99 330.10 192.06 331.18Q193.13 332.25 195.02 332.25Q196.91 332.25 197.95 331.18Q198.99 330.10 198.99 328.12L201.87 328.12Q201.87 331.22 200.01 333.03Q198.15 334.84 195.02 334.84" fill="white" fill-opacity="0.9"/>
<path d="M213.96 334.84Q210.83 334.84 209 333.02Q207.18 331.19 207.18 327.80L207.18 317.88Q207.18 314.49 209 312.66Q210.83 310.84 213.96 310.84Q217.10 310.84 218.92 312.66Q220.75 314.49 220.75 317.85L220.75 327.80Q220.75 331.19 218.92 333.02Q217.10 334.84 213.96 334.84M213.96 332.25Q215.85 332.25 216.86 331.18Q217.87 330.10 217.87 328.12L217.87 317.56Q217.87 315.58 216.86 314.50Q215.85 313.43 213.96 313.43Q212.11 313.43 211.08 314.50Q210.06 315.58 210.06 317.56L210.06 328.12Q210.06 330.10 211.08 331.18Q212.11 332.25 213.96 332.25" fill="white" fill-opacity="0.9"/>
<path d="M228.65 334.52L225.87 334.52L225.87 311.16L230.12 311.16L233.10 321.27L236.20 311.16L240.46 311.16L240.46 334.52L237.67 334.52L237.67 323.48Q237.67 321.91 237.72 319.88Q237.77 317.85 237.87 315.77Q237.96 313.69 238.09 312.02L234.31 324.09L231.82 324.09L228.20 312.31Q228.46 314.68 228.55 317.50Q228.65 320.31 228.65 323.48" fill="white" fill-opacity="0.9"/>
<path d="M247.85 334.52L245.07 334.52L245.07 311.16L249.32 311.16L252.30 321.27L255.40 311.16L259.66 311.16L259.66 334.52L256.87 334.52L256.87 323.48Q256.87 321.91 256.92 319.88Q256.97 317.85 257.07 315.77Q257.16 313.69 257.29 312.02L253.51 324.09L251.02 324.09L247.40 312.31Q247.66 314.68 247.75 317.50Q247.85 320.31 247.85 323.48" fill="white" fill-opacity="0.9"/>
<path d="M271.56 334.84Q268.30 334.84 266.57 333.03Q264.84 331.22 264.84 328.12L264.84 311.16L267.72 311.16L267.72 328.12Q267.72 330.04 268.67 331.16Q269.61 332.28 271.56 332.28Q273.48 332.28 274.44 331.16Q275.40 330.04 275.40 328.12L275.40 311.16L278.28 311.16L278.28 328.12Q278.28 331.26 276.57 333.05Q274.86 334.84 271.56 334.84" fill="white" fill-opacity="0.9"/>
<path d="M286.83 334.52L284.04 334.52L284.04 311.16L287.88 311.16L295.02 331.16Q294.95 330.36 294.87 329.19Q294.79 328.02 294.75 326.73Q294.70 325.43 294.70 324.28L294.70 311.16L297.48 311.16L297.48 334.52L293.64 334.52L286.54 314.52Q286.60 315.29 286.67 316.46Q286.73 317.62 286.78 318.92Q286.83 320.22 286.83 321.40" fill="white" fill-opacity="0.9"/>
<path d="M316.20 334.52L303.72 334.52L303.72 331.90L308.49 331.90L308.49 313.78L303.72 313.78L303.72 311.16L316.20 311.16L316.20 313.78L311.43 313.78L311.43 331.90L316.20 331.90" fill="white" fill-opacity="0.9"/>
<path d="M330.60 334.52L327.72 334.52L327.72 313.78L321.32 313.78L321.32 311.16L337 311.16L337 313.78L330.60 313.78" fill="white" fill-opacity="0.9"/>
<path d="M349.80 334.52L346.92 334.52L346.92 325.78L339.88 311.16L342.95 311.16L347.50 320.76Q347.88 321.56 348.11 322.12Q348.33 322.68 348.39 322.94Q348.46 322.68 348.70 322.12Q348.94 321.56 349.32 320.76L353.87 311.16L356.84 311.16L349.80 325.78" fill="white" fill-opacity="0.9"/>
<path d="M382.83 334.52L380.04 334.52L380.04 311.16L383.88 311.16L391.02 331.16Q390.95 330.36 390.87 329.19Q390.79 328.02 390.75 326.73Q390.70 325.43 390.70 324.28L390.70 311.16L393.48 311.16L393.48 334.52L389.64 334.52L382.54 314.52Q382.60 315.29 382.67 316.46Q382.73 317.62 382.78 318.92Q382.83 320.22 382.83 321.40" fill="white" fill-opacity="0.9"/>
<path d="M405.96 334.84Q402.83 334.84 401 333.02Q399.18 331.19 399.18 327.80L399.18 317.88Q399.18 314.49 401 312.66Q402.83 310.84 405.96 310.84Q409.10 310.84 410.92 312.66Q412.75 314.49 412.75 317.85L412.75 327.80Q412.75 331.19 410.92 333.02Q409.10 334.84 405.96 334.84M405.96 332.25Q407.85 332.25 408.86 331.18Q409.87 330.10 409.87 328.12L409.87 317.56Q409.87 315.58 408.86 314.50Q407.85 313.43 405.96 313.43Q404.11 313.43 403.08 314.50Q402.06 315.58 402.06 317.56L402.06 328.12Q402.06 330.10 403.08 331.18Q404.11 332.25 405.96 332.25" fill="white" fill-opacity="0.9"/>
<path d="M424.55 334.52L418.51 334.52L418.51 311.16L424.55 311.16Q426.83 311.16 428.47 312.02Q430.12 312.89 431.03 314.46Q431.95 316.02 431.95 318.17L431.95 327.48Q431.95 329.62 431.03 331.21Q430.12 332.79 428.47 333.66Q426.83 334.52 424.55 334.52M421.39 313.72L421.39 331.96L424.55 331.96Q426.67 331.96 427.87 330.78Q429.07 329.59 429.07 327.48L429.07 318.17Q429.07 316.09 427.87 314.90Q426.67 313.72 424.55 313.72" fill="white" fill-opacity="0.9"/>
<path d="M451.40 334.52L437.96 334.52L437.96 311.16L451.40 311.16L451.40 313.78L440.81 313.78L440.81 321.02L450.28 321.02L450.28 323.58L440.81 323.58L440.81 331.90L451.40 331.90" fill="white" fill-opacity="0.9"/>
<path d="M463.69 334.84Q460.30 334.84 458.28 333.05Q456.27 331.26 456.27 328.12L459.15 328.12Q459.15 330.07 460.39 331.18Q461.64 332.28 463.69 332.28Q465.67 332.28 466.86 331.13Q468.04 329.98 468.04 328.12Q468.04 326.71 467.29 325.67Q466.54 324.63 465.13 324.25L461.58 323.26Q459.37 322.62 458.11 320.97Q456.84 319.32 456.84 317.08Q456.84 315.22 457.67 313.82Q458.51 312.41 460.01 311.62Q461.51 310.84 463.47 310.84Q465.45 310.84 466.97 311.62Q468.49 312.41 469.35 313.80Q470.22 315.19 470.22 317.02L467.34 317.02Q467.34 315.42 466.25 314.41Q465.16 313.40 463.47 313.40Q461.77 313.40 460.71 314.41Q459.66 315.42 459.66 317.02Q459.66 318.30 460.35 319.21Q461.03 320.12 462.28 320.47L465.93 321.50Q468.27 322.14 469.56 323.91Q470.86 325.69 470.86 328.12Q470.86 331.19 468.91 333.02Q466.95 334.84 463.69 334.84" fill="white" fill-opacity="0.9"/>
</g>
<path d="M73.41 197.64L71.20 197.64L75.76 180.12L78.66 180.12L83.20 197.64L81.02 197.64L79.86 192.98L74.56 192.98L73.41 197.64M76.34 185.74L74.99 191.16L79.41 191.16L78.06 185.76Q77.68 184.22 77.46 183.19Q77.25 182.16 77.20 181.85Q77.15 182.16 76.94 183.19Q76.72 184.22 76.34 185.74" fill="white" fill-opacity="0.7"/>
<path d="M88.77 197.64L86.61 197.64L86.61 180.12L92.25 180.12Q94.70 180.12 96.15 181.52Q97.60 182.93 97.60 185.28Q97.60 187.63 96.15 189.04Q94.70 190.44 92.25 190.44L88.77 190.44L88.77 197.64M88.77 182.06L88.77 188.50L92.25 188.50Q93.66 188.50 94.52 187.62Q95.37 186.74 95.37 185.28Q95.37 183.79 94.52 182.93Q93.66 182.06 92.25 182.06" fill="white" fill-opacity="0.7"/>
<path d="M110.68 197.64L101.32 197.64L101.32 195.67L104.90 195.67L104.90 182.09L101.32 182.09L101.32 180.12L110.68 180.12L110.68 182.09L107.10 182.09L107.10 195.67L110.68 195.67" fill="white" fill-opacity="0.7"/>
<path d="M131.97 201.96L129.81 201.96L129.81 184.44L131.97 184.44L131.97 186.96L131.99 186.96Q132.16 185.66 133.12 184.93Q134.08 184.20 135.57 184.20Q137.56 184.20 138.74 185.51Q139.91 186.82 139.91 189.10L139.91 192.96Q139.91 195.24 138.74 196.56Q137.56 197.88 135.57 197.88Q134.08 197.88 133.12 197.14Q132.16 196.39 131.99 195.12L131.92 195.12L131.97 198.12L131.97 201.96M134.85 196.01Q136.22 196.01 136.98 195.29Q137.75 194.57 137.75 192.96L137.75 189.12Q137.75 187.49 136.98 186.78Q136.22 186.07 134.85 186.07Q133.53 186.07 132.75 186.91Q131.97 187.75 131.97 189.24L131.97 192.84Q131.97 194.33 132.75 195.17Q133.53 196.01 134.85 196.01" fill="white" fill-opacity="0.7"/>
<path d="M146.85 197.64L144.69 197.64L144.69 184.44L146.85 184.44L146.85 186.96L146.90 186.96Q147.06 185.69 147.98 184.94Q148.89 184.20 150.42 184.20Q152.49 184.20 153.60 185.44Q154.72 186.67 154.72 188.95L154.72 190.08L152.56 190.08L152.56 188.95Q152.56 186.07 149.75 186.07Q148.34 186.07 147.59 186.89Q146.85 187.70 146.85 189.24" fill="white" fill-opacity="0.7"/>
<path d="M163.60 197.83Q161.22 197.83 159.82 196.44Q158.42 195.05 158.42 192.55L158.42 189.53Q158.42 187.01 159.81 185.63Q161.20 184.25 163.60 184.25QNaN 184.25 167.39 185.63Q168.78 187.01 168.78 189.53L168.78 192.55Q168.78 195.05 167.38 196.44Q165.98 197.83 163.60 197.83M163.60 195.91Q165.02 195.91 165.82 195.12Q166.62 194.33 166.62 192.79L166.62 189.29Q166.62 187.75 165.82 186.96Q165.02 186.17 163.60 186.17Q162.21 186.17 161.39 186.96Q160.58 187.75 160.58 189.29L160.58 192.79Q160.58 194.33 161.39 195.12Q162.21 195.91 163.60 195.91" fill="white" fill-opacity="0.7"/>
<path d="M179.42 197.64L176.58 197.64L172.10 184.44L174.42 184.44L177.30 193.32Q177.57 194.11 177.76 194.84Q177.95 195.58 178.05 195.98Q178.17 195.58 178.34 194.84Q178.50 194.11 178.74 193.32L181.62 184.44L183.90 184.44" fill="white" fill-opacity="0.7"/>
<path d="M198.52 197.64L187.24 197.64L187.24 195.67L191.92 195.67L191.92 186.41L187.72 186.41L187.72 184.44L194.08 184.44L194.08 195.67L198.52 195.67L198.52 197.64M192.76 182.06Q191.97 182.06 191.51 181.66Q191.06 181.25 191.06 180.55Q191.06 179.83 191.51 179.41Q191.97 178.99 192.76 178.99Q193.55 178.99 194.01 179.41Q194.46 179.83 194.46 180.55Q194.46 181.25 194.01 181.66Q193.55 182.06 192.76 182.06" fill="white" fill-opacity="0.7"/>
<path d="M206.03 197.88Q204.06 197.88 202.88 196.56Q201.69 195.24 201.69 192.98L201.69 189.12Q201.69 186.84 202.86 185.52Q204.04 184.20 206.03 184.20Q207.52 184.20 208.49 184.94Q209.46 185.69 209.66 186.96L209.68 186.96L209.63 183.96L209.63 180.12L211.79 180.12L211.79 197.64L209.63 197.64L209.63 195.12L209.61 195.12Q209.44 196.42 208.48 197.15Q207.52 197.88 206.03 197.88M206.75 196.01Q208.10 196.01 208.86 195.17Q209.63 194.33 209.63 192.84L209.63 189.24Q209.63 187.75 208.86 186.91Q208.10 186.07 206.75 186.07Q205.38 186.07 204.62 186.78Q203.85 187.49 203.85 189.12L203.85 192.96Q203.85 194.57 204.62 195.29Q205.38 196.01 206.75 196.01" fill="white" fill-opacity="0.7"/>
<path d="M221.20 197.88Q218.87 197.88 217.44 196.48Q216.02 195.07 216.02 192.60L216.02 189.48Q216.02 187.01 217.44 185.60Q218.87 184.20 221.20 184.20Q222.76 184.20 223.92 184.82Q225.09 185.45 225.74 186.58Q226.38 187.70 226.38 189.24L226.38 191.59L218.13 191.59L218.13 192.84Q218.13 194.30 218.97 195.16Q219.81 196.01 221.20 196.01Q222.40 196.01 223.18 195.54Q223.96 195.07 224.13 194.28L226.29 194.28Q226.07 195.94 224.68 196.91Q223.29 197.88 221.20 197.88M218.13 189.24L218.13 189.91L224.27 189.91L224.27 189.24Q224.27 187.68 223.47 186.83Q222.66 185.98 221.20 185.98Q219.74 185.98 218.93 186.83Q218.13 187.68 218.13 189.24" fill="white" fill-opacity="0.7"/>
<path d="M236.13 197.83L235.07 197.83Q232.86 197.83 231.65 196.84Q230.44 195.84 230.44 194.02L232.60 194.02Q232.60 194.93 233.25 195.44Q233.90 195.96 235.07 195.96L236.13 195.96Q237.33 195.96 237.99 195.43Q238.65 194.90 238.65 193.94Q238.65 192.24 237.09 192.02L233.44 191.50Q232.10 191.30 231.35 190.38Q230.61 189.46 230.61 187.94Q230.61 186.22 231.80 185.23Q232.98 184.25 235.07 184.25L236.13 184.25Q238.05 184.25 239.26 185.20Q240.47 186.14 240.57 187.68L238.38 187.68Q238.34 186.98 237.72 186.53Q237.11 186.07 236.13 186.07L235.07 186.07Q233.97 186.07 233.34 186.58Q232.72 187.08 232.72 187.94Q232.72 189.34 233.99 189.53L237.40 190.01Q240.76 190.49 240.76 193.94Q240.76 195.79 239.55 196.81Q238.34 197.83 236.13 197.83" fill="white" fill-opacity="0.7"/>
<path d="M260.61 197.64L258.40 197.64L262.96 180.12L265.86 180.12L270.40 197.64L268.22 197.64L267.06 192.98L261.76 192.98L260.61 197.64M263.54 185.74L262.19 191.16L266.61 191.16L265.26 185.76Q264.88 184.22 264.66 183.19Q264.45 182.16 264.40 181.85Q264.35 182.16 264.14 183.19Q263.92 184.22 263.54 185.74" fill="white" fill-opacity="0.7"/>
<path d="M278.78 197.88Q276.50 197.88 275.13 196.52Q273.76 195.17 273.76 192.84L273.76 184.44L275.92 184.44L275.92 192.84Q275.92 194.28 276.69 195.13Q277.46 195.98 278.78 195.98Q280.12 195.98 280.90 195.13Q281.68 194.28 281.68 192.84L281.68 184.44L283.84 184.44L283.84 192.84Q283.84 195.17 282.45 196.52Q281.06 197.88 278.78 197.88" fill="white" fill-opacity="0.7"/>
<path d="M298.36 197.64L294.52 197.64Q292.89 197.64 291.90 196.69Q290.92 195.74 290.92 194.16L290.92 186.41L287.13 186.41L287.13 184.44L290.92 184.44L290.92 180.72L293.08 180.72L293.08 184.44L298.48 184.44L298.48 186.41L293.08 186.41L293.08 194.16Q293.08 194.83 293.48 195.25Q293.87 195.67 294.52 195.67L298.36 195.67" fill="white" fill-opacity="0.7"/>
<path d="M307.60 197.83Q305.22 197.83 303.82 196.44Q302.42 195.05 302.42 192.55L302.42 189.53Q302.42 187.01 303.81 185.63Q305.20 184.25 307.60 184.25Q310 184.25 311.39 185.63Q312.78 187.01 312.78 189.53L312.78 192.55Q312.78 195.05 311.38 196.44Q309.98 197.83 307.60 197.83M307.60 195.91Q309.02 195.91 309.82 195.12Q310.62 194.33 310.62 192.79L310.62 189.29Q310.62 187.75 309.82 186.96Q309.02 186.17 307.60 186.17Q306.21 186.17 305.39 186.96Q304.58 187.75 304.58 189.29L304.58 192.79Q304.58 194.33 305.39 195.12Q306.21 195.91 307.60 195.91" fill="white" fill-opacity="0.7"/>
<path d="M318.26 197.64L316.24 197.64L316.24 184.44L318.11 184.44L318.11 186.19L318.16 186.19Q318.28 185.30 318.87 184.75Q319.46 184.20 320.37 184.20Q321.23 184.20 321.83 184.70Q322.43 185.21 322.70 186.07L322.72 186.07Q322.89 185.21 323.48 184.70Q324.06 184.20 324.98 184.20Q326.25 184.20 327 185.15Q327.76 186.10 327.76 187.61L327.76 197.64L325.74 197.64L325.74 187.58Q325.74 186.79 325.36 186.32Q324.98 185.86 324.30 185.86Q323.66 185.86 323.27 186.31Q322.89 186.77 322.89 187.56L322.89 197.64L321.11 197.64L321.11 187.58Q321.11 186.79 320.73 186.32Q320.34 185.86 319.70 185.86Q319.02 185.86 318.64 186.31Q318.26 186.77 318.26 187.56" fill="white" fill-opacity="0.7"/>
<path d="M336.40 197.83Q334.02 197.83 332.62 196.44Q331.22 195.05 331.22 192.55L331.22 189.53Q331.22 187.01 332.61 185.63Q334 184.25 336.40 184.25Q338.80 184.25 340.19 185.63Q341.58 187.01 341.58 189.53L341.58 192.55Q341.58 195.05 340.18 196.44Q338.78 197.83 336.40 197.83M336.40 195.91Q337.82 195.91 338.62 195.12Q339.42 194.33 339.42 192.79L339.42 189.29Q339.42 187.75 338.62 186.96Q337.82 186.17 336.40 186.17Q335.01 186.17 334.19 186.96Q333.38 187.75 333.38 189.29L333.38 192.79Q333.38 194.33 334.19 195.12Q335.01 195.91 336.40 195.91" fill="white" fill-opacity="0.7"/>
<path d="M355.96 197.64L352.12 197.64Q350.49 197.64 349.50 196.69Q348.52 195.74 348.52 194.16L348.52 186.41L344.73 186.41L344.73 184.44L348.52 184.44L348.52 180.72L350.68 180.72L350.68 184.44L356.08 184.44L356.08 186.41L350.68 186.41L350.68 194.16Q350.68 194.83 351.08 195.25Q351.47 195.67 352.12 195.67L355.96 195.67" fill="white" fill-opacity="0.7"/>
<path d="M371.32 197.64L360.04 197.64L360.04 195.67L364.72 195.67L364.72 186.41L360.52 186.41L360.52 184.44L366.88 184.44L366.88 195.67L371.32 195.67L371.32 197.64M365.56 182.06Q364.77 182.06 364.31 181.66Q363.86 181.25 363.86 180.55Q363.86 179.83 364.31 179.41Q364.77 178.99 365.56 178.99Q366.35 178.99 366.81 179.41Q367.26 179.83 367.26 180.55Q367.26 181.25 366.81 181.66Q366.35 182.06 365.56 182.06" fill="white" fill-opacity="0.7"/>
<path d="M381.02 197.64L378.18 197.64L373.70 184.44L376.02 184.44L378.90 193.32Q379.17 194.11 379.36 194.84Q379.55 195.58 379.65 195.98Q379.77 195.58 379.94 194.84Q380.10 194.11 380.34 193.32L383.22 184.44L385.50 184.44" fill="white" fill-opacity="0.7"/>
<path d="M394 197.88Q391.67 197.88 390.24 196.48Q388.82 195.07 388.82 192.60L388.82 189.48Q388.82 187.01 390.24 185.60Q391.67 184.20 394 184.20Q395.56 184.20 396.72 184.82Q397.89 185.45 398.54 186.58Q399.18 187.70 399.18 189.24L399.18 191.59L390.93 191.59L390.93 192.84Q390.93 194.30 391.77 195.16Q392.61 196.01 394 196.01Q395.20 196.01 395.98 195.54Q396.76 195.07 396.93 194.28L399.09 194.28Q398.87 195.94 397.48 196.91Q396.09 197.88 394 197.88M390.93 189.24L390.93 189.91L397.07 189.91L397.07 189.24Q397.07 187.68 396.27 186.83Q395.46 185.98 394 185.98Q392.54 185.98 391.73 186.83Q390.93 187.68 390.93 189.24" fill="white" fill-opacity="0.7"/>
<path d="M422.34 197.64L417.81 197.64L417.81 180.12L422.34 180.12Q424.05 180.12 425.28 180.77Q426.52 181.42 427.20 182.59Q427.89 183.77 427.89 185.38L427.89 192.36Q427.89 193.97 427.20 195.16Q426.52 196.34 425.28 196.99Q424.05 197.64 422.34 197.64M419.97 182.04L419.97 195.72L422.34 195.72Q423.93 195.72 424.83 194.83Q425.73 193.94 425.73 192.36L425.73 185.38Q425.73 183.82 424.83 182.93Q423.93 182.04 422.34 182.04" fill="white" fill-opacity="0.7"/>
<path d="M436.05 197.88Q434.01 197.88 432.81 196.74Q431.61 195.60 431.61 193.75Q431.61 192.53 432.16 191.62Q432.71 190.70 433.70 190.19Q434.68 189.67 435.95 189.67L440.03 189.67L440.03 188.64Q440.03 186.07 437.22 186.07Q435.98 186.07 435.21 186.53Q434.44 186.98 434.39 187.80L432.23 187.80Q432.35 186.24 433.68 185.22Q435.02 184.20 437.22 184.20Q439.62 184.20 440.91 185.35Q442.19 186.50 442.19 188.57L442.19 197.64L440.06 197.64L440.06 195.24L440.01 195.24Q439.82 196.46 438.78 197.17Q437.75 197.88 436.05 197.88M436.58 196.06Q438.16 196.06 439.10 195.29Q440.03 194.52 440.03 193.20L440.03 191.35L436.19 191.35Q435.14 191.35 434.48 191.99Q433.82 192.62 433.82 193.68Q433.82 194.78 434.55 195.42Q435.28 196.06 436.58 196.06" fill="white" fill-opacity="0.7"/>
<path d="M456.76 197.64L452.92 197.64Q451.29 197.64 450.30 196.69Q449.32 195.74 449.32 194.16L449.32 186.41L445.53 186.41L445.53 184.44L449.32 184.44L449.32 180.72L451.48 180.72L451.48 184.44L456.88 184.44L456.88 186.41L451.48 186.41L451.48 194.16Q451.48 194.83 451.88 195.25Q452.27 195.67 452.92 195.67L456.76 195.67" fill="white" fill-opacity="0.7"/>
<path d="M464.85 197.88Q462.81 197.88 461.61 196.74Q460.41 195.60 460.41 193.75Q460.41 192.53 460.96 191.62Q461.51 190.70 462.50 190.19Q463.48 189.67 464.75 189.67L468.83 189.67L468.83 188.64Q468.83 186.07 466.02 186.07Q464.78 186.07 464.01 186.53Q463.24 186.98 463.19 187.80L461.03 187.80Q461.15 186.24 462.48 185.22Q463.82 184.20 466.02 184.20Q468.42 184.20 469.71 185.35Q470.99 186.50 470.99 188.57L470.99 197.64L468.86 197.64L468.86 195.24L468.81 195.24Q468.62 196.46 467.58 197.17Q466.55 197.88 464.85 197.88M465.38 196.06Q466.96 196.06 467.90 195.29Q468.83 194.52 468.83 193.20L468.83 191.35L464.99 191.35Q463.94 191.35 463.28 191.99Q462.62 192.62 462.62 193.68Q462.62 194.78 463.35 195.42Q464.08 196.06 465.38 196.06" fill="white" fill-opacity="0.7"/>
<path d="M493.65 197.88Q491.61 197.88 490.41 196.74Q489.21 195.60 489.21 193.75Q489.21 192.53 489.76 191.62Q490.31 190.70 491.30 190.19Q492.28 189.67 493.55 189.67L497.63 189.67L497.63 188.64Q497.63 186.07 494.82 186.07Q493.58 186.07 492.81 186.53Q492.04 186.98 491.99 187.80L489.83 187.80Q489.95 186.24 491.28 185.22Q492.62 184.20 494.82 184.20Q497.22 184.20 498.51 185.35Q499.79 186.50 499.79 188.57L499.79 197.64L497.66 197.64L497.66 195.24L497.61 195.24Q497.42 196.46 496.38 197.17Q495.35 197.88 493.65 197.88M494.18 196.06Q495.76 196.06 496.70 195.29Q497.63 194.52 497.63 193.20L497.63 191.35L493.79 191.35Q492.74 191.35 492.08 191.99Q491.42 192.62 491.42 193.68Q491.42 194.78 492.15 195.42Q492.88 196.06 494.18 196.06" fill="white" fill-opacity="0.7"/>
<path d="M509.39 197.88Q506.99 197.88 505.55 196.54Q504.11 195.19 504.11 192.84L504.11 189.24Q504.11 186.89 505.55 185.54Q506.99 184.20 509.39 184.20Q511.67 184.20 513.08 185.42Q514.48 186.65 514.55 188.76L512.39 188.76Q512.32 187.49 511.53 186.80Q510.74 186.12 509.39 186.12Q507.98 186.12 507.12 186.92Q506.27 187.73 506.27 189.22L506.27 192.84Q506.27 194.33 507.12 195.14Q507.98 195.96 509.39 195.96Q510.74 195.96 511.53 195.26Q512.32 194.57 512.39 193.32L514.55 193.32Q514.48 195.43 513.08 196.66Q511.67 197.88 509.39 197.88" fill="white" fill-opacity="0.7"/>
<path d="M523.79 197.88Q521.39 197.88 519.95 196.54Q518.51 195.19 518.51 192.84L518.51 189.24Q518.51 186.89 519.95 185.54Q521.39 184.20 523.79 184.20Q526.07 184.20 527.48 185.42Q528.88 186.65 528.95 188.76L526.79 188.76Q526.72 187.49 525.93 186.80Q525.14 186.12 523.79 186.12Q522.38 186.12 521.52 186.92Q520.67 187.73 520.67 189.22L520.67 192.84Q520.67 194.33 521.52 195.14Q522.38 195.96 523.79 195.96Q525.14 195.96 525.93 195.26Q526.72 194.57 526.79 193.32L528.95 193.32Q528.88 195.43 527.48 196.66Q526.07 197.88 523.79 197.88" fill="white" fill-opacity="0.7"/>
<path d="M538 197.88Q535.67 197.88 534.24 196.48Q532.82 195.07 532.82 192.60L532.82 189.48Q532.82 187.01 534.24 185.60Q535.67 184.20 538 184.20Q539.56 184.20 540.72 184.82Q541.89 185.45 542.54 186.58Q543.18 187.70 543.18 189.24L543.18 191.59L534.93 191.59L534.93 192.84Q534.93 194.30 535.77 195.16Q536.61 196.01 538 196.01Q539.20 196.01 539.98 195.54Q540.76 195.07 540.93 194.28L543.09 194.28Q542.87 195.94 541.48 196.91Q540.09 197.88 538 197.88M534.93 189.24L534.93 189.91L541.07 189.91L541.07 189.24Q541.07 187.68 540.27 186.83Q539.46 185.98 538 185.98Q536.54 185.98 535.73 186.83Q534.93 187.68 534.93 189.24" fill="white" fill-opacity="0.7"/>
<path d="M552.93 197.83L551.87 197.83Q549.66 197.83 548.45 196.84Q547.24 195.84 547.24 194.02L549.40 194.02Q549.40 194.93 550.05 195.44Q550.70 195.96 551.87 195.96L552.93 195.96Q554.13 195.96 554.79 195.43Q555.45 194.90 555.45 193.94Q555.45 192.24 553.89 192.02L550.24 191.50Q548.90 191.30 548.15 190.38Q547.41 189.46 547.41 187.94Q547.41 186.22 548.60 185.23Q549.78 184.25 551.87 184.25L552.93 184.25Q554.85 184.25 556.06 185.20Q557.27 186.14 557.37 187.68L555.18 187.68Q555.14 186.98 554.52 186.53Q553.91 186.07 552.93 186.07L551.87 186.07Q550.77 186.07 550.14 186.58Q549.52 187.08 549.52 187.94Q549.52 189.34 550.79 189.53L554.20 190.01Q557.56 190.49 557.56 193.94Q557.56 195.79 556.35 196.81Q555.14 197.83 552.93 197.83" fill="white" fill-opacity="0.7"/>
<path d="M567.33 197.83L566.27 197.83Q564.06 197.83 562.85 196.84Q561.64 195.84 561.64 194.02L563.80 194.02Q563.80 194.93 564.45 195.44Q565.10 195.96 566.27 195.96L567.33 195.96Q568.53 195.96 569.19 195.43Q569.85 194.90 569.85 193.94Q569.85 192.24 568.29 192.02L564.64 191.50Q563.30 191.30 562.55 190.38Q561.81 189.46 561.81 187.94Q561.81 186.22 563 185.23Q564.18 184.25 566.27 184.25L567.33 184.25Q569.25 184.25 570.46 185.20Q571.67 186.14 571.77 187.68L569.58 187.68Q569.54 186.98 568.92 186.53Q568.31 186.07 567.33 186.07L566.27 186.07Q565.17 186.07 564.54 186.58Q563.92 187.08 563.92 187.94Q563.92 189.34 565.19 189.53L568.60 190.01Q571.96 190.49 571.96 193.94Q571.96 195.79 570.75 196.81Q569.54 197.83 567.33 197.83" fill="white" fill-opacity="0.7"/>
<path d="M592.77 201.96L590.61 201.96L590.61 184.44L592.77 184.44L592.77 186.96L592.79 186.96Q592.96 185.66 593.92 184.93Q594.88 184.20 596.37 184.20Q598.36 184.20 599.54 185.51Q600.71 186.82 600.71 189.10L600.71 192.96Q600.71 195.24 599.54 196.56Q598.36 197.88 596.37 197.88Q594.88 197.88 593.92 197.14Q592.96 196.39 592.79 195.12L592.72 195.12L592.77 198.12L592.77 201.96M595.65 196.01Q597.02 196.01 597.78 195.29Q598.55 194.57 598.55 192.96L598.55 189.12Q598.55 187.49 597.78 186.78Q597.02 186.07 595.65 186.07Q594.33 186.07 593.55 186.91Q592.77 187.75 592.77 189.24L592.77 192.84Q592.77 194.33 593.55 195.17Q594.33 196.01 595.65 196.01" fill="white" fill-opacity="0.7"/>
<path d="M610 197.88Q607.67 197.88 606.24 196.48Q604.82 195.07 604.82 192.60L604.82 189.48Q604.82 187.01 606.24 185.60Q607.67 184.20 610 184.20Q611.56 184.20 612.72 184.82Q613.89 185.45 614.54 186.58Q615.18 187.70 615.18 189.24L615.18 191.59L606.93 191.59L606.93 192.84Q606.93 194.30 607.77 195.16Q608.61 196.01 610 196.01Q611.20 196.01 611.98 195.54Q612.76 195.07 612.93 194.28L615.09 194.28Q614.87 195.94 613.48 196.91Q612.09 197.88 610 197.88M606.93 189.24L606.93 189.91L613.07 189.91L613.07 189.24Q613.07 187.68 612.27 186.83Q611.46 185.98 610 185.98Q608.54 185.98 607.73 186.83Q606.93 187.68 606.93 189.24" fill="white" fill-opacity="0.7"/>
<path d="M622.05 197.64L619.89 197.64L619.89 184.44L622.05 184.44L622.05 186.96L622.10 186.96Q622.26 185.69 623.18 184.94Q624.09 184.20 625.62 184.20Q627.69 184.20 628.80 185.44Q629.92 186.67 629.92 188.95L629.92 190.08L627.76 190.08L627.76 188.95Q627.76 186.07 624.95 186.07Q623.54 186.07 622.79 186.89Q622.05 187.70 622.05 189.24" fill="white" fill-opacity="0.7"/>
<path d="M654.28 197.64L652.12 197.64L652.12 182.09L647.32 182.09L647.32 180.12L659.08 180.12L659.08 182.09L654.28 182.09" fill="white" fill-opacity="0.7"/>
<path d="M667.60 197.88Q665.27 197.88 663.84 196.48Q662.42 195.07 662.42 192.60L662.42 189.48Q662.42 187.01 663.84 185.60Q665.27 184.20 667.60 184.20Q669.16 184.20 670.32 184.82Q671.49 185.45 672.14 186.58Q672.78 187.70 672.78 189.24L672.78 191.59L664.53 191.59L664.53 192.84Q664.53 194.30 665.37 195.16Q666.21 196.01 667.60 196.01Q668.80 196.01 669.58 195.54Q670.36 195.07 670.53 194.28L672.69 194.28Q672.47 195.94 671.08 196.91Q669.69 197.88 667.60 197.88M664.53 189.24L664.53 189.91L670.67 189.91L670.67 189.24Q670.67 187.68 669.87 186.83Q669.06 185.98 667.60 185.98Q666.14 185.98 665.33 186.83Q664.53 187.68 664.53 189.24" fill="white" fill-opacity="0.7"/>
<path d="M679.65 197.64L677.49 197.64L677.49 184.44L679.65 184.44L679.65 186.96L679.70 186.96Q679.86 185.69 680.78 184.94Q681.69 184.20 683.22 184.20Q685.29 184.20 686.40 185.44Q687.52 186.67 687.52 188.95L687.52 190.08L685.36 190.08L685.36 188.95Q685.36 186.07 682.55 186.07Q681.14 186.07 680.39 186.89Q679.65 187.70 679.65 189.24" fill="white" fill-opacity="0.7"/>
<path d="M692.66 197.64L690.64 197.64L690.64 184.44L692.51 184.44L692.51 186.19L692.56 186.19Q692.68 185.30 693.27 184.75Q693.86 184.20 694.77 184.20Q695.63 184.20 696.23 184.70Q696.83 185.21 697.10 186.07L697.12 186.07Q697.29 185.21 697.88 184.70Q698.46 184.20 699.38 184.20Q700.65 184.20 701.40 185.15Q702.16 186.10 702.16 187.61L702.16 197.64L700.14 197.64L700.14 187.58Q700.14 186.79 699.76 186.32Q699.38 185.86 698.70 185.86Q698.06 185.86 697.67 186.31Q697.29 186.77 697.29 187.56L697.29 197.64L695.51 197.64L695.51 187.58Q695.51 186.79 695.13 186.32Q694.74 185.86 694.10 185.86Q693.42 185.86 693.04 186.31Q692.66 186.77 692.66 187.56" fill="white" fill-opacity="0.7"/>
<path d="M711.33 197.83L710.27 197.83Q708.06 197.83 706.85 196.84Q705.64 195.84 705.64 194.02L707.80 194.02Q707.80 194.93 708.45 195.44Q709.10 195.96 710.27 195.96L711.33 195.96Q712.53 195.96 713.19 195.43Q713.85 194.90 713.85 193.94Q713.85 192.24 712.29 192.02L708.64 191.50Q707.30 191.30 706.55 190.38Q705.81 189.46 705.81 187.94Q705.81 186.22 707 185.23Q708.18 184.25 710.27 184.25L711.33 184.25Q713.25 184.25 714.46 185.20Q715.67 186.14 715.77 187.68L713.58 187.68Q713.54 186.98 712.92 186.53Q712.31 186.07 711.33 186.07L710.27 186.07Q709.17 186.07 708.54 186.58Q707.92 187.08 707.92 187.94Q707.92 189.34 709.19 189.53L712.60 190.01Q715.96 190.49 715.96 193.94Q715.96 195.79 714.75 196.81Q713.54 197.83 711.33 197.83" fill="white" fill-opacity="0.7"/>
<path d="M739.60 197.83Q737.22 197.83 735.82 196.44Q734.42 195.05 734.42 192.55L734.42 189.53Q734.42 187.01 735.81 185.63Q737.20 184.25 739.60 184.25Q742 184.25 743.39 185.63Q744.78 187.01 744.78 189.53L744.78 192.55Q744.78 195.05 743.38 196.44Q741.98 197.83 739.60 197.83M739.60 195.91Q741.02 195.91 741.82 195.12Q742.62 194.33 742.62 192.79L742.62 189.29Q742.62 187.75 741.82 186.96Q741.02 186.17 739.60 186.17Q738.21 186.17 737.39 186.96Q736.58 187.75 736.58 189.29L736.58 192.79Q736.58 194.33 737.39 195.12Q738.21 195.91 739.60 195.91" fill="white" fill-opacity="0.7"/>
<path d="M754.12 197.64L751.96 197.64L751.96 188.21L748.12 188.21L748.12 186.24L751.96 186.24L751.96 183.48Q751.96 181.92 752.94 181.02Q753.93 180.12 755.66 180.12L759.52 180.12L759.52 182.09L755.66 182.09Q754.12 182.09 754.12 183.48L754.12 186.24L759.52 186.24L759.52 188.21L754.12 188.21" fill="white" fill-opacity="0.7"/>
<path d="M782.90 197.88Q780.35 197.88 778.84 196.54Q777.33 195.19 777.33 192.84L779.49 192.84Q779.49 194.30 780.42 195.13Q781.36 195.96 782.90 195.96Q784.38 195.96 785.27 195.10Q786.16 194.23 786.16 192.84Q786.16 191.78 785.60 191Q785.03 190.22 783.98 189.94L781.31 189.19Q779.66 188.71 778.71 187.48Q777.76 186.24 777.76 184.56Q777.76 183.17 778.38 182.11Q779.01 181.06 780.14 180.47Q781.26 179.88 782.73 179.88Q784.22 179.88 785.36 180.47Q786.50 181.06 787.14 182.10Q787.79 183.14 787.79 184.51L785.63 184.51Q785.63 183.31 784.82 182.56Q784 181.80 782.73 181.80Q781.46 181.80 780.66 182.56Q779.87 183.31 779.87 184.51Q779.87 185.47 780.39 186.16Q780.90 186.84 781.84 187.10L784.58 187.87Q786.33 188.35 787.30 189.68Q788.27 191.02 788.27 192.84Q788.27 195.14 786.81 196.51Q785.34 197.88 782.90 197.88" fill="white" fill-opacity="0.7"/>
<path d="M797.20 197.88Q794.87 197.88 793.44 196.48Q792.02 195.07 792.02 192.60L792.02 189.48Q792.02 187.01 793.44 185.60Q794.87 184.20 797.20 184.20Q798.76 184.20 799.92 184.82Q801.09 185.45 801.74 186.58Q802.38 187.70 802.38 189.24L802.38 191.59L794.13 191.59L794.13 192.84Q794.13 194.30 794.97 195.16Q795.81 196.01 797.20 196.01Q798.40 196.01 799.18 195.54Q799.96 195.07 800.13 194.28L802.29 194.28Q802.07 195.94 800.68 196.91Q799.29 197.88 797.20 197.88M794.13 189.24L794.13 189.91L800.27 189.91L800.27 189.24Q800.27 187.68 799.47 186.83Q798.66 185.98 797.20 185.98Q795.74 185.98 794.93 186.83Q794.13 187.68 794.13 189.24" fill="white" fill-opacity="0.7"/>
<path d="M809.25 197.64L807.09 197.64L807.09 184.44L809.25 184.44L809.25 186.96L809.30 186.96Q809.46 185.69 810.38 184.94Q811.29 184.20 812.82 184.20Q814.89 184.20 816 185.44Q817.12 186.67 817.12 188.95L817.12 190.08L814.96 190.08L814.96 188.95Q814.96 186.07 812.15 186.07Q810.74 186.07 809.99 186.89Q809.25 187.70 809.25 189.24" fill="white" fill-opacity="0.7"/>
<path d="M827.42 197.64L824.58 197.64L820.10 184.44L822.42 184.44L825.30 193.32Q825.57 194.11 825.76 194.84Q825.95 195.58 826.05 195.98Q826.17 195.58 826.34 194.84Q826.50 194.11 826.74 193.32L829.62 184.44L831.90 184.44" fill="white" fill-opacity="0.7"/>
<path d="M846.52 197.64L835.24 197.64L835.24 195.67L839.92 195.67L839.92 186.41L835.72 186.41L835.72 184.44L842.08 184.44L842.08 195.67L846.52 195.67L846.52 197.64M840.76 182.06Q839.97 182.06 839.51 181.66Q839.06 181.25 839.06 180.55Q839.06 179.83 839.51 179.41Q839.97 178.99 840.76 178.99Q841.55 178.99 842.01 179.41Q842.46 179.83 842.46 180.55Q842.46 181.25 842.01 181.66Q841.55 182.06 840.76 182.06" fill="white" fill-opacity="0.7"/>
<path d="M854.99 197.88Q852.59 197.88 851.15 196.54Q849.71 195.19 849.71 192.84L849.71 189.24Q849.71 186.89 851.15 185.54Q852.59 184.20 854.99 184.20Q857.27 184.20 858.68 185.42Q860.08 186.65 860.15 188.76L857.99 188.76Q857.92 187.49 857.13 186.80Q856.34 186.12 854.99 186.12Q853.58 186.12 852.72 186.92Q851.87 187.73 851.87 189.22L851.87 192.84Q851.87 194.33 852.72 195.14Q853.58 195.96 854.99 195.96Q856.34 195.96 857.13 195.26Q857.92 194.57 857.99 193.32L860.15 193.32Q860.08 195.43 858.68 196.66Q857.27 197.88 854.99 197.88" fill="white" fill-opacity="0.7"/>
<path d="M869.20 197.88Q866.87 197.88 865.44 196.48Q864.02 195.07 864.02 192.60L864.02 189.48Q864.02 187.01 865.44 185.60Q866.87 184.20 869.20 184.20Q870.76 184.20 871.92 184.82Q873.09 185.45 873.74 186.58Q874.38 187.70 874.38 189.24L874.38 191.59L866.13 191.59L866.13 192.84Q866.13 194.30 866.97 195.16Q867.81 196.01 869.20 196.01Q870.40 196.01 871.18 195.54Q871.96 195.07 872.13 194.28L874.29 194.28Q874.07 195.94 872.68 196.91Q871.29 197.88 869.20 197.88M866.13 189.24L866.13 189.91L872.27 189.91L872.27 189.24Q872.27 187.68 871.47 186.83Q870.66 185.98 869.20 185.98Q867.74 185.98 866.93 186.83Q866.13 187.68 866.13 189.24" fill="white" fill-opacity="0.7"/>
<path d="M883.60 197.88Q882.71 197.88 882.17 197.35Q881.63 196.82 881.63 195.98Q881.63 195.10 882.17 194.54Q882.71 193.99 883.60 193.99Q884.49 193.99 885.03 194.54Q885.57 195.10 885.57 195.98Q885.57 196.82 885.03 197.35Q884.49 197.88 883.60 197.88" fill="white" fill-opacity="0.7"/>
<path d="M76.11 136.06L66.42 136.06L84.56 65.98L97.14 65.98L115.18 136.06L105.49 136.06L101.07 117.82L80.53 117.82L76.11 136.06M87.54 88.92L82.45 109.95L99.15 109.95L94.16 89.02Q92.72 83.26 91.86 79.23Q90.99 75.20 90.80 73.76Q90.61 75.20 89.74 79.23Q88.88 83.26 87.54 88.92M148.40 137.02Q138.51 137.02 133.18 131.55Q127.86 126.08 127.86 116.67L127.86 65.98L137.36 65.98L137.36 116.67Q137.36 122.24 140.10 125.40Q142.83 128.57 148.40 128.57Q153.87 128.57 156.70 125.40Q159.54 122.24 159.54 116.67L159.54 65.98L169.04 65.98L169.04 116.67Q169.04 126.17 163.71 131.60Q158.38 137.02 148.40 137.02M210.80 136.06L201.30 136.06L201.30 74.62L182.29 74.62L182.29 65.98L229.71 65.98L229.71 74.62L210.80 74.62L210.80 136.06M263.60 137.02Q254 137.02 248.43 131.45Q242.86 125.88 242.86 115.71L242.86 86.24Q242.86 76.16 248.43 70.59Q254 65.02 263.60 65.02Q273.20 65.02 278.77 70.54Q284.34 76.06 284.34 86.24L284.34 115.71Q284.34 125.88 278.77 131.45Q273.20 137.02 263.60 137.02M263.60 128.57Q268.98 128.57 271.90 125.50Q274.83 122.43 274.83 116.67L274.83 85.28Q274.83 79.61 271.95 76.54Q269.07 73.47 263.60 73.47Q258.13 73.47 255.25 76.54Q252.37 79.61 252.37 85.28L252.37 116.67Q252.37 122.43 255.30 125.50Q258.22 128.57 263.60 128.57M319.66 136.06L300.85 136.06L300.85 65.98L319.66 65.98Q326.48 65.98 331.52 68.62Q336.56 71.26 339.34 76.01Q342.13 80.76 342.13 87.20L342.13 114.75Q342.13 121.18 339.34 125.98Q336.56 130.78 331.52 133.42Q326.48 136.06 319.66 136.06M310.35 74.43L310.35 127.61L319.66 127.61Q325.71 127.61 329.17 124.16Q332.62 120.70 332.62 114.75L332.62 87.20Q332.62 81.24 329.17 77.84Q325.71 74.43 319.66 74.43L310.35 74.43M400.11 136.06L359.31 136.06L359.31 65.98L400.11 65.98L400.11 74.52L368.72 74.52L368.72 95.36L396.75 95.36L396.75 103.61L368.72 103.61L368.72 127.52L400.11 127.52L400.11 136.06M421.71 136.06L412.02 136.06L430.16 65.98L442.74 65.98L460.78 136.06L451.09 136.06L446.67 117.82L426.13 117.82L421.71 136.06M433.14 88.92L428.05 109.95L444.75 109.95L439.76 89.02Q438.32 83.26 437.46 79.23Q436.59 75.20 436.40 73.76Q436.21 75.20 435.34 79.23Q434.48 83.26 433.14 88.92M518.19 136.06L477.49 136.06L477.49 65.98L486.99 65.98L486.99 127.42L518.19 127.42L518.19 136.06M572.91 136.06L532.11 136.06L532.11 65.98L572.91 65.98L572.91 74.52L541.52 74.52L541.52 95.36L569.55 95.36L569.55 103.61L541.52 103.61L541.52 127.52L572.91 127.52L572.91 136.06M598.35 136.06L588.94 136.06L588.94 65.98L610.64 65.98Q617.07 65.98 621.87 68.52Q626.67 71.07 629.36 75.63Q632.05 80.19 632.05 86.33Q632.05 93.44 628.45 98.52Q624.85 103.61 618.90 105.72L633.01 136.06L622.54 136.06L609.20 106.78L598.35 106.78L598.35 136.06M598.35 74.43L598.35 98.33L610.64 98.33Q616.02 98.33 619.14 95.07Q622.26 91.80 622.26 86.43Q622.26 80.96 619.09 77.69Q615.92 74.43 610.64 74.43L598.35 74.43M665.26 136.06L646.45 136.06L646.45 65.98L665.26 65.98Q672.08 65.98 677.12 68.62Q682.16 71.26 684.94 76.01Q687.73 80.76 687.73 87.20L687.73 114.75Q687.73 121.18 684.94 125.98Q682.16 130.78 677.12 133.42Q672.08 136.06 665.26 136.06M655.95 74.43L655.95 127.61L665.26 127.61Q671.31 127.61 674.77 124.16Q678.22 120.70 678.22 114.75L678.22 87.20Q678.22 81.24 674.77 77.84Q671.31 74.43 665.26 74.43L655.95 74.43M709.71 136.06L700.02 136.06L718.16 65.98L730.74 65.98L748.78 136.06L739.09 136.06L734.67 117.82L714.13 117.82L709.71 136.06M721.14 88.92L716.05 109.95L732.75 109.95L727.76 89.02Q726.32 83.26 725.46 79.23Q724.59 75.20 724.40 73.76Q724.21 75.20 723.34 79.23Q722.48 83.26 721.14 88.92M786.80 136.06L777.30 136.06L777.30 74.62L758.29 74.62L758.29 65.98L805.71 65.98L805.71 74.62L786.80 74.62L786.80 136.06M824.91 136.06L815.22 136.06L833.36 65.98L845.94 65.98L863.98 136.06L854.29 136.06L849.87 117.82L829.33 117.82L824.91 136.06M836.34 88.92L831.25 109.95L847.95 109.95L842.96 89.02Q841.52 83.26 840.66 79.23Q839.79 75.20 839.60 73.76Q839.41 75.20 838.54 79.23Q837.68 83.26 836.34 88.92" fill="url(#paint2_linear_0_1)"/>
<g id="Group 1">
<rect id="Rectangle 1" x="26" y="168" width="12" height="184" rx="5" fill="url(#paint3_linear_0_1)" fill-opacity="0.9"/>
</g>
<g id="Group 1_2">
<rect id="Rectangle 2" x="26" y="38" width="12" height="119" rx="5" fill="url(#paint4_linear_0_1)" fill-opacity="0.9"/>
</g>
<ellipse id="Ellipse 1" cx="148.5" cy="573" rx="215.5" ry="214" fill="url(#paint5_linear_0_1)" fill-opacity="0.4"/>
<rect id="Rectangle 3" x="1229" y="48" width="300" height="300" rx="25" fill="#FFFBFB" fill-opacity="0.9"/>
<g id="placeholder-logo"><g transform="translate(1229,48) translate(0.0,60.0) scale(1.2000)"><g fill="#666666">
  <path d="m88.05,27.65c-3.15,4 -3.2,51.2 -0.05,54.35c2.75,2.75 71.7,3.15 74.45,0.45c2.85,-2.9 2.3,-53.85 -0.65,-55.9c-1.95,-1.35 -7.15,-1.55 -36.95,-1.55l-34.7,0l-2.1,2.65zm69.45,3.35c0.65,0 1,8.6 1,23.75l0,23.75l-33,0l-33,0l-0.25,-23c-0.15,-12.6 -0.1,-23.45 0.15,-24.1c0.35,-0.85 8.9,-1.05 32.25,-0.75c17.55,0.2 32.3,0.35 32.85,0.35z"/>
  <path d="m99.15,37.3c-6.85,7.35 4.25,17.35 11.4,10.25c1.35,-1.35 2.45,-3.65 2.45,-5.05c0,-6.45 -9.35,-9.95 -13.85,-5.2z"/>
  <path d="m135,42.5c-0.7,0.85 -5.25,5.15 -10.1,9.6l-8.85,8.1l-3.2,-3.2l-3.15,-3.15l-6.35,6.3c-5.55,5.5 -6.35,6.75 -6.35,10.05l0,3.8l28.5,0l28.5,0l0,-8.6l0,-8.55l-8.15,-7.7c-9.35,-8.85 -9.15,-8.7 -10.85,-6.65zm7.25,15.2c0.95,0.9 1.75,2.9 1.75,4.45c6.35,-5.05 4.75,-7.15 4.9,-11.55c0.95,0 0,0 0,0l-6.65,7.1z"/>
  <path d="m53.65,110.75c0.1,4.8 0.45,8.65 0.75,8.5c0.35,-0.15 1.3,-0.25 2.1,-0.25c1.1,0 1.5,-1.2 1.5,-4.75l0,-4.75l3.25,5c4.9,7.5 6.2,6.75 6.55,-3.75c0.25,-8.15 0.15,-8.75 -1.7,-8.75c-1.65,0 -2.05,0.8 -2.3,4.75l-0.3,4.75l-2.8,-4.75c-4.85,-8.25 -7.25,-6.9 -7.05,4z"/>
  <path d="m91,108.9c0,9.65 0.3,10.1 6.1,10.1c5.8,0 7.15,-2.65 1.65,-3.2l-3.25,-0.3l-0.3,-6.75c-0.25,-5.95 -0.55,-6.75 -2.25,-6.75c-1.75,0 -1.95,0.7 -1.95,6.9z"/>
  <path d="m151,102.45c0,0.25 1,2.15 2.25,4.2c1.2,2.1 2.45,5.8 2.75,8.25c0.65,5.9 4,6.95 4,1.25c0.05,-2.1 1.25,-5.85 2.95,-8.9l2.9,-5.25l-2.5,0c-1.8,0 -2.8,0.85 -3.75,3.1l-1.3,3.05l-1.25,-3.05c-1.1,-2.6 -6.05,-4.8 -6.05,-2.65z"/>
  <path d="m191,107.45c0,9.05 3.4,8.85 4.25,-0.2c0.45,-5 0.35,-5.25 -1.9,-5.25c-2.2,0 -2.35,0.4 -2.35,5.45z"/>
  <path d="m180.8,104.75c-1.3,5.35 0.65,13.6 3.45,14.35c2.3,0.6 2.75,0.4 2.75,-1.2c0,-1.05 -0.45,-1.9 -1,-1.9c-0.55,0 -1,-1.6 -1,-3.5c0,-1.95 0.45,-3.5 1,-3.5c0.55,0 1,-0.7 1,-1.5c0,-0.85 -0.45,-1.5 -1,-1.5c-0.55,0 -1,-0.7 -1,-1.5c0,-2.1 -3.65,-1.9 -4.2,0.25z"/>
  <path d="m71.55,106.55c-2.2,2.25 -2.05,9.7 0.3,11.8c4.5,4.1 10.15,0.75 10.15,-6.1c0,-4.85 -2,-7.25 -6,-7.25c-1.55,0 -3.55,0.7 -4.45,1.55zm6.25,5.8c0.25,3.05 0,3.65 -1.6,3.65c-2.3,0 -3.25,-2.65 -2.05,-5.85c1.25,-3.35 3.3,-2.1 3.65,2.2z"/>
  <path d="m105.75,106.1c-2.5,1.45 -2.45,9.95 0.1,12.25c4.3,3.9 10.15,0.35 10.15,-6.2c0,-6 -5.15,-9.05 -10.25,-6.05zm6.05,6.25c0.25,3.05 0,3.65 -1.6,3.65c-2.3,0 -3.25,-2.65 -2.05,-5.85c1.25,-3.35 3.3,-2.1 3.65,2.2z"/>
  <path d="m119.2,106.2c-3.8,3.8 -0.4,12.55 4.4,11.35c1.9,-0.45 2.45,-0.3 2.15,0.65c-0.25,0.7 -1.55,1.2 -2.85,1.1c-4.05,-0.3 -5.35,0.45 -3.85,2.25c0.85,1.05 2.6,1.45 5.35,1.25l4.1,-0.3l0.3,-8.75l0.3,-8.75l-4.35,0c-2.4,0 -4.9,0.55 -5.55,1.2zm6.6,4.45c0.4,2.85 -2.15,4.85 -3.75,2.95c-0.9,-1.1 -0.9,-2 -0.05,-3.6c1.35,-2.5 3.4,-2.15 3.8,0.65z"/>
  <path d="m133.55,106.55c-2.2,2.25 -2.05,9.7 0.3,11.8c4.5,4.1 10.15,0.75 10.15,-6.1c0,-4.85 -2,-7.25 -6,-7.25c-1.55,0 -3.55,0.7 -4.45,1.55zm6.25,5.8c0.25,3.05 0,3.65 -1.6,3.65c-2.3,0 -3.25,-2.65 -2.05,-5.85c1.25,-3.35 3.3,-2.1 3.65,2.2z"/>
  <path d="m167.65,106.85c-3.9,4.3 -0.75,13.15 4.7,13.15c2.4,0 5.65,-2.75 5.65,-4.85c0,-1.4 -2.65,-1.55 -3.5,-0.15c-0.95,1.55 -4.5,1.15 -4.5,-0.5c0,-1.1 1.1,-1.5 4,-1.5c3.15,0 4,-0.35 4,-1.8c0,-5.3 -6.85,-8.25 -10.35,-4.35z"/>
  <path d="m191,117.5c0,2.15 0.4,2.6 2.25,2.3c1.5,-0.2 2.25,-1 2.25,-2.3c0,-1.3 -0.75,-2.1 -2.25,-2.3c-1.85,-0.3 -2.25,0.15 -2.25,2.3z"/>
 </g></g></g>
</g>
<defs>
<linearGradient id="paint0_linear_0_1" x1="0" y1="198" x2="1584" y2="198" gradientUnits="userSpaceOnUse">
<stop stop-color="#3D052C"/>
<stop offset="1"/>
</linearGradient>
<linearGradient id="paint1_linear_0_1" x1="323" y1="-224" x2="323" y2="352" gradientUnits="userSpaceOnUse">
<stop stop-color="#28F6F2" stop-opacity="0.4"/>
<stop offset="1" stop-color="#17908E" stop-opacity="0.7"/>
</linearGradient>
<linearGradient id="paint2_linear_0_1" x1="148.5" y1="38" x2="148.5" y2="140" gradientUnits="userSpaceOnUse">
<stop stop-color="white"/>
<stop offset="1" stop-color="#999999"/>
</linearGradient>
<linearGradient id="paint3_linear_0_1" x1="38" y1="260" x2="26" y2="260" gradientUnits="userSpaceOnUse">
<stop stop-color="#D9D9D9"/>
<stop offset="1" stop-color="#737373"/>
</linearGradient>
<linearGradient id="paint4_linear_0_1" x1="38" y1="97.5" x2="26" y2="97.5" gradientUnits="userSpaceOnUse">
<stop stop-color="#D9D9D9"/>
<stop offset="1" stop-color="#737373"/>
</linearGradient>
<linearGradient id="paint5_linear_0_1" x1="27.5" y1="434.5" x2="148.5" y2="787" gradientUnits="userSpaceOnUse">
<stop stop-color="#2E21BC"/>
<stop offset="1" stop-color="#150F56"/>
</linearGradient>
<clipPath id="clip0_0_1">
<rect width="1584" height="396" fill="white"/>
</clipPath>
</defs>
</svg>
